<?xml version="1.0" encoding="utf-8"?>
<?xml-stylesheet type="text/xsl" href="rss1.xsl"?>
<rss version="2.0" xmlns:atom="http://www.w3.org/2005/Atom" xmlns:content="http://purl.org/rss/1.0/modules/content/" xmlns:dc="http://purl.org/dc/elements/1.1/" xmlns:media="http://search.yahoo.com/mrss/">
<channel>
 <title>Getty</title>
 <link>http://www.gettyimg.com/</link>
 <atom:link href="http://www.gettyimg.com/" rel="self" type="application/rss+xml" />

 
                <item>
                <title><![CDATA[【Music Videos】Alanis Morissette - Head Over Feet (Especial Version) (1996)]]></title>
                <link><![CDATA[https://sharemania.us/threads/alanis-morissette-head-over-feet-especial-version-1996.220529/]]></link>
                <description><![CDATA[<article>
<blockquote class="messageText SelectQuoteContainer ugc baseHtml">
<div style="text-align: center"><img src="https://i.discogs.com/JWgwviCwUGBMB01l8naq3OawESruwX54KcjlSRpJuaw/rs:fit/g:sm/q:90/h:595/w:600/czM6Ly9kaXNjb2dz/LWRhdGFiYXNlLWlt/YWdlcy9SLTE5ODE0/MjEtMTM2OTI5NDE2/MS0xOTI1LmpwZWc.jpeg" class="bbCodeImage LbImage" alt="[​IMG]" data-url="https://i.discogs.com/JWgwviCwUGBMB01l8naq3OawESruwX54KcjlSRpJuaw/rs:fit/g:sm/q:90/h:595/w:600/czM6Ly9kaXNjb2dz/LWRhdGFiYXNlLWlt/YWdlcy9SLTE5ODE0/MjEtMTM2OTI5NDE2/MS0xOTI1LmpwZWc.jpeg" style=""> <br>
<img src="https://i.postimg.cc/g2ftwbKJ/Alanis-Morissette-Head-Over-Feet-Especial-Version-1996-by-nov-k-sharemania-us-vob-thumbs.jpg" class="bbCodeImage LbImage" alt="[​IMG]" data-url="https://i.postimg.cc/g2ftwbKJ/Alanis-Morissette-Head-Over-Feet-Especial-Version-1996-by-nov-k-sharemania-us-vob-thumbs.jpg" style=""><br>
<br>
<div class="bbCodeBlock bbCodeVfcHH HiddenContent">
<div class="attribution type">Hidden Content:</div>
<blockquote>You must either reply or click 'Like' to see the hidden information contained here.</blockquote>
</div></div>
<div class="messageTextEndMarker">&nbsp;</div>
</blockquote>
</article>]]></description>
                <author><![CDATA[Fan Made]]></author>
                </item>

                
                <item>
                <title><![CDATA[【Requests】[REQ AUD] - EMPIRE OF THE SUN - TWO VINES (FLAC)]]></title>
                <link><![CDATA[https://sharemania.us/threads/empire-of-the-sun-two-vines-flac.220530/]]></link>
                <description><![CDATA[<article>
<blockquote class="messageText SelectQuoteContainer ugc baseHtml">
<img src="https://m.media-amazon.com/images/I/910aSBEeITL._SL1400_.jpg" class="bbCodeImage LbImage" alt="[​IMG]" data-url="https://m.media-amazon.com/images/I/910aSBEeITL._SL1400_.jpg" style=""> <br>
<br>
<a href="https://www.qobuz.com/us-en/album/two-vines-empire-of-the-sun/0060255709845" target="_blank" class="externalLink" rel="nofollow">EMPIRE OF THE SUN - TWO VINES</a> ( qobuz )<br>
<br>
01. Before<br>
02. High And Low<br>
03. Two Vines<br>
04. Friends<br>
05. There's No Need<br>
06. Way To Go<br>
07. Ride<br>
08. Digital Life<br>
09. First Crush<br>
10. ZZZ<br>
11. To Her Door<br>
12. Keystone<br>
13. Lend Me Some Light<br>
14. Welcome To My Life
<div class="messageTextEndMarker">&nbsp;</div>
</blockquote>
</article>]]></description>
                <author><![CDATA[Ultra-PP]]></author>
                </item>

                
                <item>
                <title><![CDATA[【Cinema Center】SERIES - Ed Sheeran The Sum Of It All 2160p.DSNP.WEB-DL.DDP5.1.DV.HDR.H265-FLUX]]></title>
                <link><![CDATA[https://sharemania.us/threads/ed-sheeran-the-sum-of-it-all-2160p-dsnp-web-dl-ddp5-1-dv-hdr-h265-flux.220531/]]></link>
                <description><![CDATA[<article>
<blockquote class="messageText SelectQuoteContainer ugc baseHtml">
<div style="text-align: center"><img src="https://i.postimg.cc/pV3HzPqh/Ed-Sheeran-The-Sum-of-It-All-S01-E01-Love-2160p-DSNP-WEB-DL-DDP5-1-DV-HDR-H-265-FLUX-mkv.jpg" class="bbCodeImage LbImage" alt="[​IMG]" data-url="https://i.postimg.cc/pV3HzPqh/Ed-Sheeran-The-Sum-of-It-All-S01-E01-Love-2160p-DSNP-WEB-DL-DDP5-1-DV-HDR-H-265-FLUX-mkv.jpg" style=""> <br>
<br>
<div class="ToggleTriggerAnchor bbCodeSpoilerContainer">
<button type="button" class="button bbCodeSpoilerButton ToggleTrigger Tooltip JsOnly" data-target="> .SpoilerTarget"><span>Spoiler: <span class="SpoilerTitle">MediaInfo</span></span></button>
<div class="SpoilerTarget bbCodeSpoilerText">Format : Matroska<br>
Format version : Version 4<br>
File size : 3.41 GiB<br>
Duration : 32 min 42 s<br>
Overall bit rate : 14.9 Mb/s<br>
Writing application : mkvmerge v75.0.0 ('Goliath') 64-bit<br>
Writing library : libebml v1.4.4 + libmatroska v1.7.1<br>
Video<br>
ID : 1<br>
Format : HEVC<br>
Format/Info : High Efficiency Video Coding<br>
Format profile : Main 10@L5@High<br>
HDR format : Dolby Vision, Version 1.0, dvhe.08.06, BL+RPU, HDR10 compatible / SMPTE ST 2086, HDR10 compatible<br>
Codec ID : V_MPEGH/ISO/HEVC<br>
Duration : 32 min 42 s<br>
Bit rate : 14.6 Mb/s<br>
Width : 3 840 pixels<br>
Height : 2 160 pixels<br>
Display aspect ratio : 16:9<br>
Frame rate mode : Constant<br>
Frame rate : 23.976 (24000/1001) FPS<br>
Color space : YUV<br>
Chroma subsampling : 4:2:0<br>
Bit depth : 10 bits<br>
Bits/(Pixel*Frame) : 0.074<br>
Stream size : 3.35 GiB (98%)<br>
Language : English<br>
Default : Yes<br>
Forced : No<br>
Color range : Limited<br>
Color primaries : BT.2020<br>
Transfer characteristics : PQ<br>
Matrix coefficients : BT.2020 non-constant<br>
Mastering display color primaries : BT.2020<br>
Mastering display luminance : min: 0.0001 cd/m2, max: 1000 cd/m2<br>
Audio<br>
ID : 2<br>
Format : E-AC-3<br>
Format/Info : Enhanced AC-3<br>
Commercial name : Dolby Digital Plus<br>
Codec ID : A_EAC3<br>
Duration : 32 min 42 s<br>
Bit rate mode : Constant<br>
Bit rate : 256 kb/s<br>
Channel(s) : 6 channels<br>
Channel layout : L R C LFE Ls Rs<br>
Sampling rate : 48.0 kHz<br>
Frame rate : 31.250 FPS (1536 SPF)<br>
Compression mode : Lossy<br>
Stream size : 59.9 MiB (2%)<br>
Language : English<br>
Service kind : Complete Main<br>
Default : Yes<br>
Forced : No<br>
Text #1<br>
ID : 3<br>
Format : UTF-8<br>
Codec ID  : S_TEXT/UTF8<br>
Codec ID/Info : UTF-8 Plain Text<br>
Duration : 32 min 35 s<br>
Bit rate : 110 b/s<br>
Count of elements : 589<br>
Stream size : 26.5 KiB (0%)<br>
Language : English<br>
Default : No<br>
Forced : No<br>
Text #2<br>
ID : 4<br>
Format : UTF-8<br>
Codec ID : S_TEXT/UTF8<br>
Codec ID/Info : UTF-8 Plain Text<br>
Duration : 32 min 36 s<br>
Bit rate : 119 b/s<br>
Count of elements : 624<br>
Stream size : 28.5 KiB (0%)<br>
Title : SDH<br>
Language : English<br>
Default : No<br>
Forced : No<br>
Text #3<br>
ID : 5<br>
Format : UTF-8<br>
Codec ID : S_TEXT/UTF8<br>
Codec ID/Info : UTF-8 Plain Text<br>
Duration : 32 min 34 s<br>
Bit rate : 95 b/s<br>
Count of elements : 544<br>
Stream size : 22.8 KiB (0%)<br>
Language : Czech<br>
Default : No<br>
Forced : No<br>
Text #4<br>
ID : 6<br>
Format : UTF-8<br>
Codec ID : S_TEXT/UTF8<br>
Codec ID/Info : UTF-8 Plain Text<br>
Duration : 32 min 34 s<br>
Bit rate : 81 b/s<br>
Count of elements : 437<br>
Stream size : 19.4 KiB (0%)<br>
Language : Danish<br>
Default : No<br>
Forced : No<br>
Text #5<br>
ID : 7<br>
Format : UTF-8<br>
Codec ID : S_TEXT/UTF8<br>
Codec ID/Info : UTF-8 Plain Text<br>
Duration : 32 min 34 s<br>
Bit rate : 92 b/s<br>
Count of elements : 571<br>
Stream size : 22.1 KiB (0%)<br>
Language : German<br>
Default : No<br>
Forced : No<br>
Text #6<br>
ID : 8<br>
Format : UTF-8<br>
Codec ID : S_TEXT/UTF8<br>
Codec ID/Info : UTF-8 Plain Text<br>
Duration : 32 min 34 s<br>
Bit rate : 153 b/s<br>
Count of elements : 578<br>
Stream size : 36.7 KiB (0%)<br>
Language : Greek<br>
Default : No<br>
Forced : No<br>
Text #7<br>
ID : 9<br>
Format : UTF-8<br>
Codec ID : S_TEXT/UTF8<br>
Codec ID/Info : UTF-8 Plain Text<br>
Duration : 32 min 34 s<br>
Bit rate : 88 b/s<br>
Count of elements : 586<br>
Stream size : 21.1 KiB (0%)<br>
Title : Latin American<br>
Language : Spanish<br>
Default : No<br>
Forced : No<br>
Text #8<br>
ID : 10<br>
Format : UTF-8<br>
Codec ID : S_TEXT/UTF8<br>
Codec ID/Info : UTF-8 Plain Text<br>
Duration : 32 min 34 s<br>
Bit rate : 81 b/s<br>
Count of elements : 552<br>
Stream size : 19.5 KiB (0%)<br>
Language : Spanish<br>
Default : No<br>
Forced : No<br>
Text #9<br>
ID : 11<br>
Format : UTF-8<br>
Codec ID : S_TEXT/UTF8<br>
Codec ID/Info : UTF-8 Plain Text<br>
Duration : 32 min 28 s<br>
Bit rate : 76 b/s<br>
Count of elements : 488<br>
Stream size : 18.3 KiB (0%)<br>
Language : Finnish<br>
Default : No<br>
Forced : No<br>
Text #10<br>
ID : 12<br>
Format : UTF-8<br>
Codec ID : S_TEXT/UTF8<br>
Codec ID/Info : UTF-8 Plain Text<br>
Duration : 32 min 28 s<br>
Bit rate : 87 b/s<br>
Count of elements : 554<br>
Stream size : 20.7 KiB (0%)<br>
Language : French<br>
Default : No<br>
Forced : No<br>
Text #11<br>
ID : 13<br>
Format : UTF-8<br>
Codec ID : S_TEXT/UTF8<br>
Codec ID/Info : UTF-8 Plain Text<br>
Duration : 32 min 34 s<br>
Bit rate : 93 b/s<br>
Count of elements : 614<br>
Stream size : 22.2 KiB (0%)<br>
Language : Hungarian<br>
Default : No<br>
Forced : No<br>
Text #12<br>
ID : 14<br>
Format : UTF-8<br>
Codec ID : S_TEXT/UTF8<br>
Codec ID/Info : UTF-8 Plain Text<br>
Duration : 32 min 34 s<br>
Bit rate : 81 b/s<br>
Count of elements : 473<br>
Stream size : 19.5 KiB (0%)<br>
Language : Italian<br>
Default : No<br>
Forced : No<br>
Text #13<br>
ID : 15<br>
Format : UTF-8<br>
Codec ID : S_TEXT/UTF8<br>
Codec ID/Info : UTF-8 Plain Text<br>
Duration : 32 min 34 s<br>
Bit rate : 67 b/s<br>
Count of elements : 442<br>
Stream size : 16.2 KiB (0%)<br>
Language : Japanese<br>
Default : No<br>
Forced : No<br>
Text #14<br>
ID : 16<br>
Format : UTF-8<br>
Codec ID : S_TEXT/UTF8<br>
Codec ID/Info : UTF-8 Plain Text<br>
Duration : 32 min 34 s<br>
Bit rate : 88 b/s<br>
Count of elements : 534<br>
Stream size : 21.2 KiB (0%)<br>
Language : Korean<br>
Default : No<br>
Forced : No<br>
Text #15<br>
ID : 17<br>
Format : UTF-8<br>
Codec ID : S_TEXT/UTF8<br>
Codec ID/Info : UTF-8 Plain Text<br>
Duration : 32 min 34 s<br>
Bit rate : 83 b/s<br>
Count of elements : 514<br>
Stream size : 19.9 KiB (0%)<br>
Language : Dutch<br>
Default : No<br>
Forced : No<br>
Text #16<br>
ID : 18<br>
Format : UTF-8<br>
Codec ID : S_TEXT/UTF8<br>
Codec ID/Info : UTF-8 Plain Text<br>
Duration : 32 min 34 s<br>
Bit rate : 72 b/s<br>
Count of elements : 413<br>
Stream size : 17.2 KiB (0%)<br>
Language : Norwegian<br>
Default : No<br>
Forced : No<br>
Text #17<br>
ID : 19<br>
Format : UTF-8<br>
Codec ID : S_TEXT/UTF8<br>
Codec ID/Info : UTF-8 Plain Text<br>
Duration : 32 min 34 s<br>
Bit rate : 85 b/s<br>
Count of elements : 593<br>
Stream size : 20.3 KiB (0%)<br>
Language : Polish<br>
Default : No<br>
Forced : No<br>
Text #18<br>
ID : 20<br>
Format : UTF-8<br>
Codec ID : S_TEXT/UTF8<br>
Codec ID/Info : UTF-8 Plain Text<br>
Duration : 32 min 34 s<br>
Bit rate : 88 b/s<br>
Count of elements : 590<br>
Stream size : 21.0 KiB (0%)<br>
Title : Brazilian<br>
Language : Portuguese<br>
Default : No<br>
Forced : No<br>
Text #19<br>
ID : 21<br>
Format : UTF-8<br>
Codec ID : S_TEXT/UTF8<br>
Codec ID/Info : UTF-8 Plain Text<br>
Duration : 32 min 34 s<br>
Bit rate : 98 b/s<br>
Count of elements : 613<br>
Stream size : 23.4 KiB (0%)<br>
Language : Portuguese<br>
Default : No<br>
Forced : No<br>
Text #20<br>
ID : 22<br>
Format : UTF-8<br>
Codec ID : S_TEXT/UTF8<br>
Codec ID/Info : UTF-8 Plain Text<br>
Duration : 32 min 34 s<br>
Bit rate : 88 b/s<br>
Count of elements : 527<br>
Stream size : 21.0 KiB (0%)<br>
Language : Romanian<br>
Default : No<br>
Forced : No<br>
Text #21<br>
ID : 23<br>
Format : UTF-8<br>
Codec ID : S_TEXT/UTF8<br>
Codec ID/Info : UTF-8 Plain Text<br>
Duration : 32 min 34 s<br>
Bit rate : 76 b/s<br>
Count of elements : 516<br>
Stream size : 18.2 KiB (0%)<br>
Language : Slovak<br>
Default : No<br>
Forced : No<br>
Text #22<br>
ID : 24<br>
Format : UTF-8<br>
Codec ID : S_TEXT/UTF8<br>
Codec ID/Info : UTF-8 Plain Text<br>
Duration : 32 min 34 s<br>
Bit rate : 76 b/s<br>
Count of elements : 523<br>
Stream size : 18.2 KiB (0%)<br>
Language : Swedish<br>
Default : No<br>
Forced : No<br>
Text #23<br>
ID : 25<br>
Format : UTF-8<br>
Codec ID : S_TEXT/UTF8<br>
Codec ID/Info : UTF-8 Plain Text<br>
Duration : 32 min 34 s<br>
Bit rate : 105 b/s<br>
Count of elements : 614<br>
Stream size : 25.1 KiB (0%)<br>
Language : Turkish<br>
Default : No<br>
Forced : No<br>
Text #24<br>
ID : 26<br>
Format : UTF-8<br>
Codec ID : S_TEXT/UTF8<br>
Codec ID/Info : UTF-8 Plain Text<br>
Duration : 32 min 34 s<br>
Bit rate : 81 b/s<br>
Count of elements : 621<br>
Stream size : 19.4 KiB (0%)<br>
Title : Hong Kong<br>
Language : Chinese<br>
Default : No<br>
Forced : No<br>
Text #25<br>
ID : 27<br>
Format : UTF-8<br>
Codec ID : S_TEXT/UTF8<br>
Codec ID/Info : UTF-8 Plain Text<br>
Duration : 32 min 34 s<br>
Bit rate : 87 b/s<br>
Count of elements : 624<br>
Stream size : 20.9 KiB (0%)<br>
Title : Traditional<br>
Language : Chinese<br>
Default : No<br>
Forced : No<br>
Menu<br>
00:02:54.091 : en:Intro<br>
00:03:00.013 : en:Scene 1<br>
00:08:47.444 : en:Scene 2<br>
00:17:52.364 : en:Scene 3<br>
00:27:20.724 : en:Scene 4<br>
00:31:43.904 : en:Credits</div>
</div><br>
<b><span style="color: #ff4d4d">CREDIST TO THE ORIGINAL CAPPER<br>
</span></b><br>
<div class="bbCodeBlock bbCodeVfcHH HiddenContent">
<div class="attribution type">Hidden Content:</div>
<blockquote>You must either reply or click 'Like' to see the hidden information contained here.</blockquote>
</div></div><br>
<div style="text-align: center">​</div>
<div class="messageTextEndMarker">&nbsp;</div>
</blockquote>
</article>]]></description>
                <author><![CDATA[tknobi]]></author>
                </item>

                </channel></rss>